<?xml version="1.0" encoding="utf-8"?>
<!-- Generator: Adobe Illustrator 21.1.0, SVG Export Plug-In . SVG Version: 6.00 Build 0)  -->
<svg version="1.1" id="Слой_2" xmlns="http://www.w3.org/2000/svg" xmlns:xlink="http://www.w3.org/1999/xlink" x="0px" y="0px"
	 viewBox="0 0 2000 2000" style="enable-background:new 0 0 2000 2000;" xml:space="preserve">
<path d="M1463.9,708.4c3.4-36.9-6.3-70.8-36.2-100.3c31.4-283.3-10.8-487.1-165.7-569.4c-4.9-2.6-10.7-2.6-15.6-0.1
	c-156,79.5-199,284.1-174,564.3c-29.7,28.7-39.8,62.1-37.2,98.6c-29.6,69.1-26,167.1,8.8,292.2l17.2,3.8l22.9-3.8
	c5.4-49,12.9-95.3,24.9-135.8c0.6,3.2,1.2,6.5,1.8,9.7c3.6,2.7,8.5,5.2,14.3,7.4v29.8c50.6,22.9,192.9,24.8,241.7,2.9v-26.5
	c5.8-1.5,10.9-3.2,15.3-5c1.3-5.7,2.5-11.5,3.7-17.2c12,41.7,18.9,89.7,23.5,140.5l22.8,4.3l17.3-3.5
	C1486.7,876,1492.2,778.1,1463.9,708.4z M1143.1,161.2c27.3-48.3,64.5-84.6,110.6-108.2c0.1,0,0.2-0.1,0.3-0.1c0.1,0,0.2,0,0.3,0.1
	c53.1,28.2,93.5,72.5,121.2,133.2c-83.7,6.1-165.9,6.1-245.2,0.1C1134.3,177.6,1138.6,169.2,1143.1,161.2z M1371.8,204.5
	c-2.8,0.6-5.8-2-6.6-5.9c-0.8-3.9,0.8-7.5,3.6-8.1c2.8-0.6,5.8,2,6.6,5.9C1376.2,200.3,1374.6,203.9,1371.8,204.5z M1324.3,206.7
	c-3.4,0.4-6.5-2.5-7-6.4c-0.5-3.9,1.9-7.4,5.3-7.8c3.4-0.4,6.5,2.5,7,6.4C1330.1,202.8,1327.7,206.3,1324.3,206.7z M1262.8,201.4
	c0,4-3.2,7.2-7.2,7.2c-4,0-7.2-3.2-7.2-7.2s3.2-7.2,7.2-7.2C1259.6,194.3,1262.8,197.5,1262.8,201.4z M1185.4,200.2
	c-0.4,3.9-3.5,6.8-6.9,6.5s-5.8-3.8-5.4-7.8c0.4-3.9,3.5-6.8,6.9-6.5C1183.4,192.8,1185.8,196.3,1185.4,200.2z M1129.2,196.4
	c0.8-3.9,3.8-6.5,6.7-5.9c2.8,0.6,4.5,4.3,3.6,8.1c-0.8,3.9-3.8,6.5-6.7,5.9C1130,203.9,1128.4,200.3,1129.2,196.4z M1089.4,338.4
	c6.5-50,17.4-94.3,32.6-132.6c42.2,3.4,85.3,5.1,129,5.1c43.7,0,88.1-1.7,132.8-5.1c39.5,101.1,47.6,243.3,24.5,428.2
	c-8-6.2-16.6-11.9-25.9-17c-36.9-17.9-68.1,115.2-45.8,144.3c1.3,1.5,2.6,3,3.8,4.5c-63.5,3.7-126,3.9-187,0.6
	c2.6-3.3,5.3-6.5,8.1-9.5c22.9-28.7-5.7-162.4-43-145.2c-9.8,5.2-19,11-27.4,17.4C1079.4,515.7,1078.9,419.6,1089.4,338.4z
	 M1313.8,784.5c-3.4,0.4-6.5-2.5-7-6.4c-0.5-3.9,1.9-7.4,5.3-7.8s6.5,2.5,7,6.4C1319.6,780.6,1317.2,784.1,1313.8,784.5z
	 M1252.3,779.3c0,4-3.2,7.2-7.2,7.2c-4,0-7.2-3.2-7.2-7.2c0-4,3.2-7.2,7.2-7.2C1249.1,772.2,1252.3,775.4,1252.3,779.3z
	 M1174.9,778.1c-0.4,3.9-3.5,6.8-6.9,6.5s-5.8-3.8-5.4-7.8c0.4-3.9,3.5-6.8,6.9-6.5S1175.3,774.1,1174.9,778.1z M1061.4,990.8
	l-12-2.7c-26.3-95.8-33.7-175.4-22.1-236.8c5.9-31,16.7-57.9,32.3-80.1c15.6-22.2,36.4-40.2,61.9-53.6c1.3-0.6,2.5-0.8,3.7-0.8
	c4.1,0,8.7,3.4,13.2,9.5C1032.6,670.5,1024.6,809,1061.4,990.8z M1182.6,912c-5-0.7-9.8-1.4-14.3-2.2v-24.5
	c4.6,0.7,9.4,1.4,14.3,1.9V912z M1245.6,916.5c-18.4-0.3-36.2-1.4-52.5-3.2v-24.9c0.6,0.1,1.2,0.1,1.8,0.2l0.2,0.1l0.4,0
	c16,1.5,33,2.4,50.1,2.7V916.5z M1312.5,913.5c-6.4,0.7-13.1,1.3-20.1,1.8v-24.5c6.8-0.3,13.5-0.7,20.1-1.3V913.5z M1368.2,864.1
	c-22.8,7-63.2,11.3-109,11.3c-66.1,0-114.9-8.5-133.7-17.7c-2-10.4-3.9-20.7-5.7-30.9c5.8-14.8,12.5-28.5,20.1-40.9
	c33.1,2.1,66.6,3.1,100.5,3.1c37.5,0,75.5-1.3,113.8-3.8c8.2,13.1,15.3,27.7,21.4,43.5C1373.3,840.2,1370.8,852.1,1368.2,864.1z
	 M1444.2,994.6l-12.1,2.4c40.3-181.1,34.9-319.7-69.9-365.8c4.7-6.1,9.3-9.4,13.4-9.3c1.2,0,2.4,0.3,3.6,0.9
	c25.2,13.9,45.7,32.3,60.9,54.8c15.2,22.4,25.5,49.6,30.8,80.7C1481.3,819.9,1472.4,899.3,1444.2,994.6z"/>
<path d="M1248.5,506.1c47.7,0,86.4-38.8,86.4-86.4c0-47.7-38.8-86.4-86.4-86.4c-47.7,0-86.4,38.8-86.4,86.4
	C1162,467.4,1200.8,506.1,1248.5,506.1z"/>
<path d="M1248.5,546.7c70.2,0,127-56.9,127-127c0-70.2-56.9-127-127-127c-70.2,0-127,56.9-127,127
	C1121.4,489.9,1178.3,546.7,1248.5,546.7z M1216.6,534.9c-5,0-9.1-4.1-9.1-9.1c0-5,4.1-9.1,9.1-9.1s9.1,4.1,9.1,9.1
	C1225.6,530.8,1221.6,534.9,1216.6,534.9z M1280.5,534.9c-5,0-9.1-4.1-9.1-9.1c0-5,4.1-9.1,9.1-9.1c5,0,9.1,4.1,9.1,9.1
	C1289.6,530.8,1285.6,534.9,1280.5,534.9z M1332.1,501.4c-5,0-9.1-4.1-9.1-9.1c0-5,4.1-9.1,9.1-9.1c5,0,9.1,4.1,9.1,9.1
	C1341.2,497.4,1337.1,501.4,1332.1,501.4z M1367.1,436c0,5-4.1,9.1-9.1,9.1s-9.1-4.1-9.1-9.1s4.1-9.1,9.1-9.1S1367.1,431,1367.1,436
	z M1348.9,363.9c5,0,9.1,4.1,9.1,9.1c0,5-4.1,9.1-9.1,9.1s-9.1-4.1-9.1-9.1C1339.9,368,1343.9,363.9,1348.9,363.9z M1308.8,317.7
	c5,0,9.1,4.1,9.1,9.1c0,5-4.1,9.1-9.1,9.1s-9.1-4.1-9.1-9.1C1299.7,321.7,1303.8,317.7,1308.8,317.7z M1248.5,299.8
	c2.6,0,5,1.1,6.6,2.9c1.8,1.7,2.9,4,2.9,6.6c0,5-4.1,9.1-9.1,9.1c-2.6,0-5-1.1-6.6-2.9c-1.8-1.7-2.9-4-2.9-6.6
	C1239.4,303.9,1243.5,299.8,1248.5,299.8z M1194.7,314.8c5,0,9.1,4.1,9.1,9.1c0,5-4.1,9.1-9.1,9.1s-9.1-4.1-9.1-9.1
	C1185.6,318.9,1189.7,314.8,1194.7,314.8z M1139,445.2c-5,0-9.1-4.1-9.1-9.1c0-5,4.1-9.1,9.1-9.1s9.1,4.1,9.1,9.1
	C1148,441.1,1144,445.2,1139,445.2z M1141.1,368.2c0-5,4.1-9.1,9.1-9.1s9.1,4.1,9.1,9.1c0,5-4.1,9.1-9.1,9.1
	S1141.1,373.2,1141.1,368.2z M1248.5,326.6c51.4,0,93.1,41.8,93.1,93.1s-41.8,93.1-93.1,93.1c-51.4,0-93.1-41.8-93.1-93.1
	S1197.1,326.6,1248.5,326.6z M1156,492.4c0-5,4.1-9.1,9.1-9.1c5,0,9.1,4.1,9.1,9.1c0,5-4.1,9.1-9.1,9.1
	C1160,501.5,1156,497.4,1156,492.4z"/>
<path d="M1823.5,1601.3c-10.2-70.1-71.8-120.1-141-117.4c-1.3-47.5-27.2-93-72-117.2c-44.3-23.9-95.8-21.1-136.1,3
	c-4.2-10.4-10.1-20.4-17.8-29.5c-21.2-25-51.3-37.9-81.6-38c-6.9-16.8-17.3-32.3-30.6-45.4c-0.3-4.2-0.6-8.4-0.9-12.6
	c-5.2-70.6-11-141-17.4-211.5c-3.2-35.9-6.6-71.7-10.2-107.6c-4.9,0.6-10,1.1-15.3,1.6c2.9,35.8,6,71.7,9.3,107.5
	c6.4,70.4,13.3,140.8,20.9,211.2c6.7,61.8,13.8,123.6,22,185.2c-13.6,23.4-33.1,41.1-55.6,52.3c29.5-11.3,55.3-32.8,71.6-62.9
	c18-33.3,20.9-70.7,10.9-104.3c24.7,2.5,48.4,14.1,65.6,34.4c35.8,42.3,29.8,106.3-13.4,143c-17.1,14.5-37.4,22.5-57.9,24.4
	c24.8,0.1,49.8-8.2,70.1-25.5c32-27.1,44.2-69,35.1-107.2c37.1-20.5,83-22.4,122.4-1.1c62.2,33.7,84.7,112.6,50.3,176.2
	c-13.6,25.1-34,44.1-57.6,55.8c29.5-11.3,55.3-32.8,71.6-62.9c9.9-18.4,15.2-38,16.4-57.5c61.1,2.9,113.3,47.6,122.3,109.1
	c10.2,70-39.6,135.2-111.2,145.6c-28.2,4.1-55.7-0.9-79.2-12.8c10.4,6.6,21.6,11.7,33.5,15.4c-16.4,42.8-52.1,77-99.2,88.9
	c-71.4,18.1-144.2-21.4-171.3-89.6c2.2-3.7,4.2-7.5,6-11.5c19.2-42.8,8.2-91.5-24-122.1c26.8-35.9,72-55.2,118-46
	c64.2,12.9,105.5,76.6,92.3,142.2c-5.2,25.9-18.1,48.2-35.8,65c23.1-18,40-44.1,46.3-75c13.8-68.8-30.8-135.8-99.6-149.6
	c-52.4-10.5-103.7,12.8-131.3,54.9c-6.1-4.5-12.8-8.5-20-11.7c-4.2-1.9-8.5-3.5-12.8-4.8c2.2-29.8-5.4-59.5-21.4-84.5
	c0.2-58.7-0.2-117.4-0.8-176.1c-1-85.7-2.6-171.3-4.7-257c-1.2-49.3-2.7-98.7-4.3-148c-4.9,0.3-10,0.5-15.1,0.6
	c0.9,49.3,1.9,98.5,3.1,147.8c2.2,85.6,4.9,171.3,8.2,256.9c2.2,55.8,4.7,111.5,7.6,167.3c-11.5-15.3-26.4-28.4-44.3-38.1
	c-5.3-2.9-10.8-5.4-16.3-7.5c3.7-52,6.8-103.9,9.7-155.9c4.2-77.3,7.8-154.7,10.8-232c1.8-46,3.4-92.1,4.8-138.2c-2.3,0-4.7,0-7,0
	c-2.7,0-5.4-0.1-8-0.2c-2.2,45.9-4.2,91.8-6,137.7c-3,77.4-5.5,154.8-7.3,232.2c-1.2,51.5-2.1,102.9-2.5,154.4
	c-5.2-1.7-10.5-3.2-15.8-4.3c5.2-15.6,8.2-32.2,8.5-49.4c0.6-36.3-10.5-70-29.9-97.6c3.4-30.9,6.7-61.9,9.9-92.8
	c6.9-68.6,13.2-137.2,18.9-205.9c2.1-25,4.1-50,6-75c-5.4-0.3-10.6-0.6-15.7-1.1c-2.2,24.9-4.4,49.8-6.5,74.7
	c-5.7,68.7-10.9,137.4-15.4,206.2c-1.8,27.8-3.5,55.7-5.1,83.5c-6.3-7.6-13.2-14.6-20.7-21l-10.3-8c-4.7-3.4-9.6-6.5-14.6-9.3
	c6.7-38.2,12.8-76.5,18.7-114.8c8.6-56.2,16.5-112.5,23.9-168.8c2-15,3.9-30.1,5.8-45.1c-5.5-0.7-10.8-1.6-15.8-2.5
	c-2.1,15.2-4.1,30.3-6.1,45.5c-7.4,56.4-14.2,112.8-20.5,169.3c-4.1,37.8-8,75.6-11.4,113.5c-21.9-11.5-46.8-18.1-73.2-18.6
	c-64.2-1.2-120.5,34.6-148.7,87.7c-40.9-27.4-93.6-36.3-143.9-19.5c-54.4,18.1-93.1,61.9-107.1,113.5c-10.1-0.9-20.5-0.9-31,0.3
	c-41.8,4.7-77.6,26.2-101.6,56.9c-33.4-53.8-102.3-75.8-161.5-49c-34.7,15.7-59,45.1-69.5,78.8c-49.4-3.1-96.2,28-110.9,77.5
	c-12.2,41.2,1.1,83.9,30.8,111.1c-10.6,38.2-4,80.7,21.5,114.9c43.8,58.9,127.1,71,186,27.2c1.8-1.4,3.6-2.8,5.3-4.2
	c48.8,34.4,112.3,36,162.1,7.1c30.1,30.2,72.9,47.5,118.8,43.8c23.5-1.9,45.4-9.2,64.4-20.5c28.1,44.9,72,80.2,126.7,96.7
	c90,27.2,183.8-4.2,240.4-72.2c24.6,21.2,57.5,32.6,92.4,29c62.6-6.4,109.4-58.8,110.1-120.3c11.9-6.6,22.5-15.6,31.3-26.5
	c26.6,75,106.4,118.8,185.1,98.9c54.9-13.9,95.5-55.3,110.9-105.8c13.6,2.3,27.9,2.5,42.3,0.4
	C1782.5,1746.1,1834.5,1676.3,1823.5,1601.3z M1355,1426.8c-2.3-46.4-5.1-92.8-8.3-139.1C1374.9,1326.8,1379.9,1380.8,1355,1426.8z
	 M1053.6,1254.1c84.9,1.5,152.4,73.2,150.9,160c-0.2,11.3-1.6,22.4-4,33c-52.8-8.2-107.3,15.1-137.1,62.2
	c-17.5-6.3-36.4-9.8-56.1-9.8c-12.5,0-24.7,1.4-36.4,4c9.6-31.5,9.9-66.3-1.4-99.9c-10-29.9-27.6-55-50.1-73.9
	C947,1283.6,997,1253.1,1053.6,1254.1z M701.8,1856.4c-77.2,6.3-145-52.7-151.4-131.7c-2.5-31.2,4.9-60.8,19.5-85.6
	c-20.3,28-31.2,63.2-28.1,100.5c2.5,31.2,14.4,59.4,32.7,82.1c-48.2,21.9-106.1,16.2-148.5-19.5c-59.2-49.9-65.8-139.5-14.7-200.1
	c20.1-23.9,46.3-39.7,74.1-47.1c-34.2,5.6-66.6,22.9-90.7,51.5c-53.5,63.5-45.5,158.4,18.1,211.9c0.9,0.7,1.7,1.4,2.6,2.1
	c-55.5,36.1-129.6,24.2-168.8-28.4c-40.9-54.9-28.5-133.3,27.7-175.1c22.2-16.5,47.8-24.8,73.3-25.5c-30.5-2.1-62,6.3-88.4,26
	c-20.7,15.5-35.7,35.8-44.4,58.3c-21.6-25.4-30.5-60.4-20.4-94.2c15.9-53.6,73.4-83.9,128.2-67.6c21.6,6.4,39.7,19.2,52.6,35.5
	c-13.6-21-34.4-37.5-60.3-45.2c-2.7-0.8-5.5-1.5-8.3-2.1c10.9-28,32-51.7,61.2-64.9c60.1-27.2,131.3,0.6,159.1,62
	c11,24.2,13.6,50.1,9,74.2c7.9-27.2,6.9-57.2-4.8-85.2c22.3-29.4,55.8-49.9,94.9-54.4c48.6-5.5,94.3,15.1,123.6,50.9
	c-30.6-10.7-65.5-8.5-95.7,9c-54.9,31.8-73.5,102.1-41.7,157c15.1,26,38.8,43.8,65.4,52.1c-21.5-9-40.4-24.9-53.1-46.8
	c-30.4-52.4-13.5-118.9,37.6-148.6c32-18.6,70-18.3,101.3-2.7c9.5,16.6,15.8,35.5,18.1,55.8c1.4,12.4,1.2,24.6-0.4,36.4
	c-16.5,21.3-29.4,45.9-37.7,73.3c-17.6,58.4-10.6,118.3,15,168.7C741.3,1848.6,722.3,1854.7,701.8,1856.4z M903.7,1923
	c-112-33.8-174.7-154.1-140.1-268.7c1.2-4.1,2.6-8.1,4-12.1c6.6-10.5,11.9-21.9,15.7-33.9c14.3-25,33.1-46.5,54.9-63.6
	c-18.6,11.9-35.4,26.4-50,43.4c2.3-13.7,2.8-27.9,1.2-42.5c-7.4-65.3-55.6-116-116.2-129.8c15.2-43.4,49.1-79.4,95.5-94.8
	c80.5-26.8,168.1,18.2,195.5,100.7c9.2,27.6,10.5,55.8,5.1,82.2c-72.8,17.1-126.9,82.5-126.9,160.5c0,43.1,16.6,82.4,43.7,111.7
	c-20.2-26.6-32.2-60-32.2-96.3c0-86.9,68.8-157.3,153.7-157.3c84.9,0,153.7,70.4,153.7,157.3c0,34.3-10.7,66-28.9,91.8
	c24.7-28.8,39.7-66.3,39.7-107.2c0-1.5,0-3-0.1-4.6c9.3,37.1,8.9,77.4-3,116.9C1134.5,1891.3,1015.6,1956.8,903.7,1923z
	 M1234.8,1783.8c-20.4-9.2-36.4-24-47-41.7c10.6,22.4,28.9,41.3,53.3,52.3c28.3,12.7,59.2,12.2,85.8,1
	c-7.7,51.2-48.4,92.5-101.1,97.9c-30.2,3.1-58.9-6.2-81.3-23.8c14.5-20,26.1-42.8,33.6-67.8c15.4-51.2,12-103.5-6.4-149.6
	c-4.6-62-43.4-114.4-97.7-138.5c38.6-48.5,106.6-64.4,161.9-34.5c62.2,33.7,84.7,112.6,50.3,176.2c-13.6,25.1-34,44.1-57.6,55.8
	c29.5-11.3,55.3-32.8,71.6-62.9c8.3-15.4,13.4-31.7,15.5-48.1c0.4,0.2,0.8,0.4,1.3,0.5c51.7,23.2,75.3,83,52.6,133.6
	S1286.5,1807,1234.8,1783.8z"/>
</svg>
